<?xml version="1.0" encoding="utf-8"?>
<!-- Generator: Adobe Illustrator 21.0.2, SVG Export Plug-In . SVG Version: 6.00 Build 0)  -->
<svg version="1.1" id="Layer_1" xmlns="http://www.w3.org/2000/svg" xmlns:xlink="http://www.w3.org/1999/xlink" x="0px" y="0px"
	 viewBox="0 0 104 102" style="enable-background:new 0 0 104 102;" xml:space="preserve">
<style type="text/css">
	.st0{opacity:0.64;}
	.st1{opacity:0.8;enable-background:new    ;}
	.st2{fill:#FFFFFF;}
</style>
<g id="icon360" transform="translate(-0.5 -0.485)" class="st0">
	<ellipse id="타원_10" class="st1" cx="52.5" cy="51.5" rx="52" ry="51"/>
	<path id="패스_115" class="st2" d="M32.5,55.4l2.2-2.1c0.8,1.1,2.1,1.7,3.5,1.8c1,0.1,1.9-0.6,2-1.6c0-0.1,0-0.1,0-0.2l0,0
		c0-1.1-1-1.9-2.8-1.9h-1.3l-0.5-2.1l3.4-3.5h-5.7v-2.7h9.8v2.4l-3.6,3.5c2,0.3,3.9,1.3,3.9,4l0,0c0,2.7-2,4.7-5.1,4.7
		C36.1,58,34,57.1,32.5,55.4z"/>
	<path id="패스_116" class="st2" d="M47.4,56.3c-1-1-1.8-2.6-1.8-5.5l0,0c0-4.4,2.1-7.8,6.3-7.8c1.6,0,3.2,0.5,4.5,1.5l-1.6,2.5
		c-0.8-0.7-1.9-1.1-3-1.1c-1.8,0-2.7,1.4-2.9,3.3c0.9-0.6,1.9-1,3-0.9c2.9,0,5,1.5,5,4.6l0,0c0,3-2.4,4.9-5.5,4.9
		C50,58,48.5,57.4,47.4,56.3z M54,53L54,53c0-1.2-1-2.2-2.2-2.2c-0.1,0-0.2,0-0.2,0c-1.5,0-2.5,0.8-2.5,2.1l0,0c0,1.2,1,2.2,2.2,2.2
		c0.1,0,0.2,0,0.2,0C53,55.1,54,54.3,54,53L54,53z"/>
	<path id="패스_117" class="st2" d="M59.3,50.5L59.3,50.5c0-4.2,2.6-7.5,6.4-7.5c3.8,0,6.4,3.2,6.4,7.4l0,0c0,4.2-2.6,7.4-6.4,7.4
		C61.9,57.9,59.3,54.7,59.3,50.5z M68.9,50.5L68.9,50.5c0-2.7-1.2-4.6-3.2-4.6c-1.9,0-3.1,2-3.1,4.5l0,0c0,2.7,1.2,4.6,3.2,4.6
		C67.8,55,68.9,53.1,68.9,50.5z"/>
	<path id="패스_118" class="st2" d="M92,67.2l-1.4-4.8v-0.1c-0.1-0.2-0.4-0.3-0.6-0.2l-4.5,2.3l0,0c-0.2,0.1-0.3,0.4-0.2,0.6
		s0.4,0.3,0.6,0.2l0,0l3.4-1.6c-7,20.3-29.1,31.1-49.4,24.2c-11.7-4-20.8-13.3-24.5-25.1l0,0c-0.1-0.2-0.3-0.3-0.5-0.3
		c-0.2,0.1-0.4,0.3-0.3,0.5l0,0C21,83.7,43.2,95.4,64,88.9c12.2-3.8,21.8-13.2,25.9-25.4l1.1,3.9c0.1,0.2,0.2,0.3,0.4,0.3h0.1
		C91.8,67.7,92,67.5,92,67.2z"/>
	<path id="패스_119" class="st2" d="M14.8,41.1H15l0.4-0.2h0.1v-0.1l4-2c0.2-0.1,0.3-0.4,0.2-0.6c-0.1-0.2-0.4-0.3-0.6-0.2
		L16,39.5C23,19.4,45.1,8.7,65.3,15.8c11.6,4,20.5,13.3,24.2,25l0.3-0.1H90c0.1,0,0.1-0.1,0.2-0.1h0.1v-0.1c0-0.1,0.1-0.2,0-0.3
		c0-0.1-0.1-0.2-0.2-0.2c-6.8-20.8-29.2-32.1-50-25.2c-11.9,3.9-21.2,13.2-25.2,25l-1.2-4c-0.1-0.2-0.3-0.3-0.5-0.3
		c-0.2,0-0.3,0.3-0.3,0.5l1.4,4.8C14.4,40.9,14.6,41,14.8,41.1z"/>
</g>
</svg>
