<svg xmlns="http://www.w3.org/2000/svg" width="1129.516" height="167.937" viewBox="0 0 1129.516 167.937">
  <g id="그룹_57" data-name="그룹 57" transform="translate(-106.029 -434.019)" opacity="0.5">
    <g id="그룹_55" data-name="그룹 55" transform="translate(106.029 434.019)">
      <rect id="사각형_24" data-name="사각형 24" width="30.006" height="129.14" transform="translate(170.403 38.529)"/>
      <rect id="사각형_25" data-name="사각형 25" width="30.006" height="24.229" transform="translate(170.403)"/>
      <path id="패스_109" data-name="패스 109" d="M201.466,455.486H106.029l12.167,22.2h67.293c9.039,0,13.836,4.082,13.836,11.771v8.111c0,7.689-4.8,11.77-13.836,11.77h-51.6c-18.2,0-27.864,8.219-27.864,23.7V560.92c0,15.486,9.661,23.706,27.864,23.706h37.567c15.34,0,27.864-.847,27.864-11.745v11.745h30.007V479.19C229.333,463.7,219.671,455.486,201.466,455.486Zm-2.141,95.168c0,7.691-4.8,11.772-13.836,11.772H143.855c-9.04,0-13.838-4.081-13.838-11.772v-7.348c0-7.689,4.8-11.771,13.838-11.771h41.634c9.039,0,13.836,4.082,13.836,11.771Z" transform="translate(-106.029 -416.957)"/>
      <path id="패스_110" data-name="패스 110" d="M275.1,467.255v-.031c0-7.689,4.8-11.77,13.836-11.77h62.4l-12.2,22.256h-50.2c-9.037,0-13.836,4.081-13.836,11.77v95.172H245.1V455.512H275.1v11.713" transform="translate(4.504 -416.982)"/>
    </g>
    <g id="그룹_56" data-name="그룹 56" transform="translate(521.865 434.019)">
      <path id="패스_111" data-name="패스 111" d="M370.248,452.312l-32.531-18.293V570.911c0,20.105,12.544,30.777,36.178,30.777H475.611l-15.8-28.823h-71.6c-11.736,0-17.964-5.3-17.964-15.281Z" transform="translate(-337.717 -434.019)" fill="#ed533e"/>
      <path id="패스_112" data-name="패스 112" d="M539.216,434.019H483.132a53.1,53.1,0,0,0-52.947,52.947v61.775a53.1,53.1,0,0,0,52.947,52.947h56.084a53.1,53.1,0,0,0,52.947-52.947V486.966A53.1,53.1,0,0,0,539.216,434.019ZM559.632,536.9a32.075,32.075,0,0,1-31.98,31.982H494.7a32.075,32.075,0,0,1-31.98-31.982V498.806a32.074,32.074,0,0,1,31.98-31.98h32.956a32.074,32.074,0,0,1,31.98,31.98Z" transform="translate(-264.222 -434.019)" fill="#ed533e"/>
      <path id="패스_113" data-name="패스 113" d="M648.348,434.019H595.984c-30.144,0-54.808,23.923-54.808,53.164v62.025c0,20.341,11.952,38.086,29.365,47.015L584.322,571.5l4.483-8.062a31.833,31.833,0,0,1-13.955-26.118V499.07c0-17.661,14.9-32.111,33.1-32.111h29.564c18.208,0,33.105,14.45,33.105,32.111v38.249a31.832,31.832,0,0,1-13.955,26.118c1.468,2.64,17.121,32.786,17.121,32.786,17.415-8.929,29.365-26.674,29.365-47.015V487.183C703.154,457.942,678.492,434.019,648.348,434.019Z" transform="translate(-176.005 -434.019)" fill="#ed533e"/>
      <path id="패스_114" data-name="패스 114" d="M755.514,518.12c-4.591-8.375-13.686-13.447-24.433-13.786l64.614-70.315H756.516L684.7,512.176V434.286H652.167V601.956H684.7V554.813l22.514-24.546h4.675c11.245,0,18.307,7.94,23.06,16.609l30.19,55.079h36.331Z" transform="translate(-87.789 -434.019)" fill="#ed533e"/>
    </g>
  </g>
</svg>
