<svg xmlns="http://www.w3.org/2000/svg" width="230" height="34.196" viewBox="0 0 230 34.196">
  <g id="그룹_57" data-name="그룹 57" transform="translate(-106.029 -434.019)">
    <g id="그룹_55" data-name="그룹 55" transform="translate(106.029 434.019)">
      <rect id="사각형_24" data-name="사각형 24" width="6.11" height="26.296" transform="translate(34.699 7.845)"/>
      <rect id="사각형_25" data-name="사각형 25" width="6.11" height="4.934" transform="translate(34.699)"/>
      <path id="패스_109" data-name="패스 109" d="M125.463,455.486H106.029l2.478,4.52h13.7c1.841,0,2.817.831,2.817,2.4v1.652c0,1.566-.977,2.4-2.817,2.4H111.7c-3.707,0-5.674,1.674-5.674,4.827v5.677c0,3.153,1.967,4.827,5.674,4.827h7.65c3.124,0,5.674-.172,5.674-2.392v2.392h6.11v-21.47C131.137,457.16,129.17,455.486,125.463,455.486Zm-.436,19.379c0,1.566-.977,2.4-2.817,2.4h-8.478c-1.841,0-2.818-.831-2.818-2.4v-1.5c0-1.566.977-2.4,2.818-2.4h8.478c1.841,0,2.817.831,2.817,2.4Z" transform="translate(-106.029 -447.64)"/>
      <path id="패스_110" data-name="패스 110" d="M251.207,457.857v-.006c0-1.566.977-2.4,2.817-2.4H266.73l-2.484,4.532H254.024c-1.84,0-2.817.831-2.817,2.4v19.38H245.1v-26.3h6.11v2.385" transform="translate(-194.272 -447.62)"/>
    </g>
    <g id="그룹_56" data-name="그룹 56" transform="translate(190.704 434.019)">
      <path id="패스_111" data-name="패스 111" d="M344.341,437.744l-6.624-3.725v27.875c0,4.094,2.554,6.267,7.367,6.267H365.8l-3.217-5.869H348c-2.39,0-3.658-1.079-3.658-3.112Z" transform="translate(-337.717 -434.019)" fill="#ed533e"/>
      <path id="패스_112" data-name="패스 112" d="M452.387,434.019h-11.42A10.813,10.813,0,0,0,430.185,444.8V457.38a10.813,10.813,0,0,0,10.781,10.781h11.42a10.813,10.813,0,0,0,10.781-10.781V444.8A10.813,10.813,0,0,0,452.387,434.019Zm4.157,20.949a6.531,6.531,0,0,1-6.512,6.512h-6.711a6.531,6.531,0,0,1-6.512-6.512v-7.757a6.531,6.531,0,0,1,6.512-6.512h6.711a6.531,6.531,0,0,1,6.512,6.512Z" transform="translate(-396.391 -434.019)" fill="#ed533e"/>
      <path id="패스_113" data-name="패스 113" d="M563,434.019H552.336a11.029,11.029,0,0,0-11.16,10.826v12.63a10.815,10.815,0,0,0,5.979,9.574l2.806-5.034.913-1.642a6.482,6.482,0,0,1-2.842-5.318v-7.789a6.662,6.662,0,0,1,6.741-6.539h6.02a6.662,6.662,0,0,1,6.741,6.539v7.789a6.482,6.482,0,0,1-2.842,5.318c.3.538,3.486,6.676,3.486,6.676a10.814,10.814,0,0,0,5.98-9.574v-12.63A11.029,11.029,0,0,0,563,434.019Z" transform="translate(-466.817 -434.019)" fill="#ed533e"/>
      <path id="패스_114" data-name="패스 114" d="M673.211,451.144a5.706,5.706,0,0,0-4.975-2.807l13.157-14.318h-7.978l-14.624,15.915v-15.86h-6.624v34.142h6.624v-9.6l4.584-5h.952c2.29,0,3.728,1.617,4.7,3.382l6.148,11.216h7.4Z" transform="translate(-537.244 -434.019)" fill="#ed533e"/>
    </g>
  </g>
</svg>
