<?xml version="1.0" encoding="utf-8"?>
<!-- Generator: Adobe Illustrator 21.0.2, SVG Export Plug-In . SVG Version: 6.00 Build 0)  -->
<svg version="1.1" id="Layer_1" xmlns="http://www.w3.org/2000/svg" xmlns:xlink="http://www.w3.org/1999/xlink" x="0px" y="0px"
	 viewBox="0 0 680 101" style="enable-background:new 0 0 680 101;" xml:space="preserve">
<style type="text/css">
	.st0{fill:#ED533E;}
</style>
<g id="그룹_57" transform="translate(-106.029 -434.019)">
	<g id="그룹_55" transform="translate(106.029 434.019)">
		<rect id="사각형_24" x="102.6" y="23.2" width="18.1" height="77.7"/>
		<rect id="사각형_25" x="102.6" y="0" width="18.1" height="14.6"/>
		<path id="패스_109" d="M57.5,23.2H0l7.3,13.4h40.5c5.4,0,8.3,2.5,8.3,7.1v4.9c0,4.6-2.9,7.1-8.3,7.1H16.8
			C5.8,55.6,0,60.5,0,69.8v16.8c0,9.3,5.8,14.3,16.8,14.3h22.6c9.2,0,16.8-0.5,16.8-7.1v7.1h18.1V37.4
			C74.2,28.1,68.4,23.2,57.5,23.2z M56.2,80.4c0,4.6-2.9,7.1-8.3,7.1H22.8c-5.4,0-8.3-2.5-8.3-7.1V76c0-4.6,2.9-7.1,8.3-7.1h25.1
			c5.4,0,8.3,2.5,8.3,7.1L56.2,80.4z"/>
		<path id="패스_110" d="M168.3,30.2L168.3,30.2c0-4.6,2.9-7.1,8.3-7.1h37.6l-7.3,13.4h-30.2c-5.4,0-8.3,2.5-8.3,7.1v57.2h-18.1
			V23.2h18.1L168.3,30.2"/>
	</g>
	<g id="그룹_56" transform="translate(389.961 434.019)">
		<path id="패스_111" class="st0" d="M-14,11L-33.6,0v82.3c0,12.1,7.6,18.5,21.8,18.5h61.2l-9.5-17.3H-3.2
			c-7.1,0-10.8-3.2-10.8-9.2L-14,11z"/>
		<path id="패스_112" class="st0" d="M131.9,0H98.2C80.6,0.1,66.4,14.3,66.3,31.8V69c0.1,17.6,14.3,31.8,31.9,31.8h33.8
			c17.6-0.1,31.8-14.3,31.9-31.8V31.8C163.8,14.3,149.5,0.1,131.9,0z M144.2,61.9c0,10.6-8.6,19.2-19.3,19.2h-19.8
			c-10.6,0-19.2-8.6-19.3-19.2V39c0-10.6,8.6-19.2,19.3-19.2H125c10.6,0,19.2,8.6,19.3,19.2L144.2,61.9z"/>
		<path id="패스_113" class="st0" d="M250.7,0h-31.5c-18.1,0-33,14.4-33,32v37.3c0.1,12,6.9,22.9,17.7,28.3l8.3-14.9l2.7-4.8
			c-5.2-3.5-8.4-9.4-8.4-15.7v-23c0-10.6,9-19.3,19.9-19.3h17.8c11,0,19.9,8.7,19.9,19.3v23c0,6.3-3.2,12.2-8.4,15.7
			c0.9,1.6,10.3,19.7,10.3,19.7c10.7-5.4,17.6-16.3,17.7-28.3V32C283.7,14.4,268.9,0,250.7,0z"/>
		<path id="패스_114" class="st0" d="M368.4,50.6c-2.8-5-8.2-8.1-14.7-8.3L392.6,0H369l-43.2,47V0.2h-19.6V101h19.6V72.7
			l13.6-14.8h2.8c6.8,0,11,4.8,13.9,10l18.2,33.1H396L368.4,50.6z"/>
	</g>
</g>
</svg>
