<?xml version="1.0" encoding="utf-8"?>
<!-- Generator: Adobe Illustrator 21.0.2, SVG Export Plug-In . SVG Version: 6.00 Build 0)  -->
<svg version="1.1" id="Layer_1" xmlns="http://www.w3.org/2000/svg" xmlns:xlink="http://www.w3.org/1999/xlink" x="0px" y="0px"
	 viewBox="0 0 70 77" style="enable-background:new 0 0 70 77;" xml:space="preserve">
<style type="text/css">
	.st0{fill:#D71E26;}
</style>
<g id="그룹_54" transform="translate(-73.678 -273.058)">
	<g id="그룹_53" transform="translate(73.783 273.058)">
		<path id="패스_92" class="st0" d="M27,5.3c-0.6-0.4-0.9-0.3-1,0.4c-0.4,2.2,2.1,5.8,6.5,5.8c2.8,0.1,5.5-1,7.6-3
			c0.6-0.7,0.4-0.9-0.3-0.9C35.3,8.3,30.9,7.4,27,5.3"/>
		<path id="패스_93" class="st0" d="M23.8,15.7c-1.3,1.6-3,3.1-4.7,4.4c-0.3,0.1-0.4,0.6-0.3,0.9c0,0,0,0,0,0.1
			c0.4,0.6,1.2,1.2,1.9,1.3c0.3,0.1,0.7,0.1,1-0.1c0.9-0.7,1.6-1.6,2.2-2.7c0.6-0.9,0.9-2.2,0.6-3.2C24.3,15.1,24.2,15.1,23.8,15.7"
			/>
		<path id="패스_94" class="st0" d="M33.8,61.7c0.3,0,0.3-0.1,0.1-0.3c-1.6-1.9-2.7-4.4-2.7-6.9c0-4.7,3.4-9,8.2-9
			c3.4,0,7.7,3.7,6.5,9.5c-0.1,0.4,0,0.4,0.3,0.3c2.1-1,3.4-3.4,3.3-5.8c0-3.4-2.2-8.1-4.9-9c-0.4-0.1-0.4-0.4,0-0.4
			c4,0,6.8,4,6.5,8.6c0,0.3,0.1,0.3,0.3,0.1c1.3-1.3,1.9-3.1,1.9-5c-0.3-4.9-4.2-8.9-9-9.3c-0.4,0-0.4-0.3-0.1-0.4
			c3.6-0.7,7.4,0.4,9.9,3.1c0.3,0.3,0.6,0.1,0.6-0.1c0-5.8-4-12.1-11-12.1c-6.8,0-11.3,4.6-11.7,9.9c0,0.3-0.3,0.4-0.6,0.4
			c-1.9-0.4-3.3-2.1-3.3-4c0-3.2,2.8-8.9,2.8-14c0-3.4-2.8-6.6-4.6-6.6c-0.3,0-0.4,0.1-0.3,0.4c0.3,0.7-0.1,1.5-0.7,1.8
			c-0.1,0-0.1,0-0.3,0.1c-0.3,0.1-0.4,0.4-0.1,0.6c1,0.9,1.5,2.1,1.6,3.4c0,2.4-0.7,4.4-4.7,7.8c-3.7,3.1-5.2,6.1-5.2,9
			c0,2.5,0.7,4.4,2.7,7.8c2.5,4.3,11.6,19.8,11.6,19.8c0.1,0.1,0.3,0.3,0.6,0.3L33.8,61.7z"/>
		<path id="패스_95" class="st0" d="M35,6.1c1.2,0.1,2.2,0.1,3.4,0L34.9,0l-3.1,5.5c1,0.3,1.9,0.4,3,0.6H35z"/>
		<path id="패스_96" class="st0" d="M55.2,38.8c-0.4,0.1-1,0.1-1.5,0c0.3,0.4,0.6,1,0.7,1.6l10.4,18.5H34.3c0.3,0.6,0.6,1,1,1.5
			c0.3,0.4,0.4,0.9,0.4,1.3h34.1L56.4,37.8C56.1,38.2,55.7,38.7,55.2,38.8"/>
		<path id="패스_97" class="st0" d="M44.8,23.3c1.3,0.1,2.7,0.4,3.9,1l-8-14.2c-0.7,0.7-1.5,1.2-2.4,1.6L44.8,23.3z"/>
		<path id="패스_98" class="st0" d="M4.9,58.8L16.2,39c-0.6-1.3-0.9-2.7-1-4L0,61.7h29.2l-1.6-2.8L4.9,58.8z"/>
	</g>
	<rect id="사각형_21" x="73.7" y="336.8" class="st0" width="2.2" height="10.9"/>
	<path id="패스_99" class="st0" d="M142.5,347.7h-2.4v-6.2h-1V340h1v-1.3c0.1-1,0.9-1.8,1.9-1.9c0.6,0,1.5,0,1.5,0v1.5h-0.4
		c-0.3,0-0.6,0.3-0.7,0.7v1h1v1.5h-1L142.5,347.7z"/>
	<rect id="사각형_22" x="136.3" y="339.9" class="st0" width="2.4" height="7.7"/>
	<rect id="사각형_23" x="136.3" y="336.8" class="st0" width="2.4" height="1.9"/>
	<path id="패스_100" class="st0" d="M135.7,347.7c-0.6,0.1-1.2,0.1-1.8,0.1c-0.9,0.1-1.8-0.6-1.9-1.5V340c0.6,0,0.6-1,0.9-2.2h1.3
		v2.2h1.5v1.5h-1.5v4.1c0,0.3,0.3,0.6,0.6,0.6h0.9V347.7z"/>
	<path id="패스_101" class="st0" d="M127.4,347.7V340h2.2v1c0.3-0.6,0.9-1,1.5-1h0.3v2.1h-0.7c-0.6,0-1,0.3-1.2,0.9c0,0,0,0,0,0.1
		v4.7L127.4,347.7z"/>
	<path id="패스_102" class="st0" d="M122.9,343.9c0-1.3,0.1-2.5,0.9-2.5c0.7,0,0.9,1,0.9,2.5c0,1.5-0.3,2.5-0.9,2.5
		C122.9,346.2,122.9,345.2,122.9,343.9 M126.9,343.9c0-2.4-0.9-4.1-3.1-4.1c-2.1,0-3.1,1.8-3.3,4.1c0,2.4,1,4,3.3,4
		C125.8,347.8,126.9,346.2,126.9,343.9"/>
	<path id="패스_103" class="st0" d="M116,341.8c0-0.3,0.3-0.6,0.6-0.6c0,0,0,0,0.1,0c0.9,0,1,1,1,2.7c0,1.5-0.3,2.7-1,2.8
		c-0.3,0-0.7-0.1-0.7-0.4V341.8 M116,349.9v-2.7c0.4,0.4,1,0.7,1.8,0.7c0.9,0,2.2-1.3,2.4-4c0-3.5-1.5-4.1-2.4-4.1
		c-0.7,0-1.3,0.3-1.8,0.9v-0.6h-2.2v9.9L116,349.9z"/>
	<path id="패스_104" class="st0" d="M102.5,346.1c0,0.4-0.3,0.6-0.7,0.4c-0.7,0-1-1-1-2.5s0.1-2.7,1-2.7c0.3,0,0.7,0.1,0.7,0.6
		l0,0V346.1 M104.8,349.8v-9.9h-1.3l-0.4,1c-0.4-0.7-1.2-1.2-1.9-1.2c-0.7,0-2.7,0.9-2.7,4.3c0,3.1,1.3,3.8,2.4,3.8
		c0.6,0,1.3-0.1,1.8-0.7v2.7H104.8z"/>
	<path id="패스_105" class="st0" d="M93.7,343.9c0-1.3,0.1-2.5,0.9-2.5s0.9,1,0.9,2.5c0,1.5-0.3,2.5-0.9,2.5
		C93.7,346.2,93.7,345,93.7,343.9 M97.9,343.9c0-2.4-0.9-4.1-3.3-4.1c-2.1,0-3.3,1.8-3.3,4.1c0,2.4,1.2,4,3.3,4
		C96.7,347.8,97.9,346.2,97.9,343.9"/>
	<path id="패스_106" class="st0" d="M90.9,342.5c0.1-1.5-0.9-2.7-2.4-2.8c-0.1,0-0.1,0-0.3,0c-2.1,0-3.3,1.8-3.3,4.1
		c0,2.4,1.2,4,3.3,4c1.5,0,2.8-1.3,2.7-3l-1.6-0.1c0,1-0.4,1.5-1,1.5c-0.9,0-1-1-1-2.4c0-1.3,0.1-2.7,0.9-2.5
		c0.7,0.1,0.7,0.7,0.9,1.3L90.9,342.5z"/>
	<path id="패스_107" class="st0" d="M78.9,342.8c0-0.9,0.1-1.6,0.9-1.6s0.9,0.7,0.9,1.6H78.9 M82.9,344.2c0.1-3.1-1.3-4.4-3.1-4.4
		c-2.1,0-3.1,1.8-3.1,4.1c0,2.4,1.2,4,3.3,4c1.3,0,2.7-0.7,3.1-2.1l-1.5-0.6c-0.1,0.6-0.7,1-1.3,1c-0.9,0-1.2-0.7-1.2-2.1
		L82.9,344.2z"/>
	<path id="패스_108" class="st0" d="M107.4,345.8l1.6-0.4c0.1,0.6,0.7,1,1.5,1c0.7,0,1.5-1,0-1.5c-0.7-0.1-1.5-0.6-2.1-1
		c-0.9-1-0.9-2.5,0.1-3.4c0.6-0.4,1.3-0.7,2.1-0.6c1.2,0,2.2,0.7,2.5,1.9l-1.5,0.4c-0.3-0.9-0.9-0.9-1.2-0.9c-0.4,0-0.7,0.3-0.7,0.6
		c0,0.3,0.1,0.6,0.4,0.6c0.9,0.6,3.3,1,3.3,2.8c-0.1,1.6-1.6,2.7-3.1,2.5C108.8,348,107.7,347.1,107.4,345.8"/>
</g>
</svg>
