<svg xmlns="http://www.w3.org/2000/svg" xmlns:xlink="http://www.w3.org/1999/xlink" width="33" height="35.469" viewBox="0 0 33 35.469"><defs><filter id="a" x="0" y="0" width="33" height="27.212" filterUnits="userSpaceOnUse"><feOffset dy="3" input="SourceAlpha"/><feGaussianBlur stdDeviation="3" result="b"/><feFlood flood-opacity="0.161"/><feComposite operator="in" in2="b"/><feComposite in="SourceGraphic"/></filter><filter id="c" x="0" y="8.257" width="33" height="27.212" filterUnits="userSpaceOnUse"><feOffset dy="3" input="SourceAlpha"/><feGaussianBlur stdDeviation="3" result="d"/><feFlood flood-opacity="0.161"/><feComposite operator="in" in2="d"/><feComposite in="SourceGraphic"/></filter></defs><g transform="translate(-174 -753)"><g transform="matrix(1, 0, 0, 1, 174, 753)" filter="url(#a)"><path d="M13.69,17.681l5.672-6.1a1.016,1.016,0,0,1,1.514,0,1.223,1.223,0,0,1,0,1.631l-6.426,6.907a1.017,1.017,0,0,1-1.478.034L6.5,13.22a1.22,1.22,0,0,1,0-1.631,1.016,1.016,0,0,1,1.514,0Z" transform="translate(2.81 -5.25)" fill="#fff"/></g><g transform="matrix(1, 0, 0, 1, 174, 753)" filter="url(#c)"><path d="M13.69,17.681l5.672-6.1a1.016,1.016,0,0,1,1.514,0,1.223,1.223,0,0,1,0,1.631L14.45,20.123a1.017,1.017,0,0,1-1.478.034L6.5,13.22a1.22,1.22,0,0,1,0-1.631,1.016,1.016,0,0,1,1.514,0Z" transform="translate(2.81 3.01)" fill="#fff"/></g></g></svg>