<svg xmlns="http://www.w3.org/2000/svg" width="109" height="120.147" viewBox="0 0 109 120.147">
  <g id="그룹_54" data-name="그룹 54" transform="translate(-73.678 -273.058)">
    <g id="그룹_53" data-name="그룹 53" transform="translate(73.92 273.058)">
      <path id="패스_92" data-name="패스 92" d="M139.924,286.157c-1-.61-1.484-.478-1.727.685-.72,3.458,3.265,9.049,10.2,8.928,4.877-.086,9.338-1.794,11.708-4.733.924-1.137.746-1.4-.455-1.275-7.009.771-14.8-.6-19.721-3.6" transform="translate(-97.824 -277.784)" fill="#d71e26"/>
      <path id="패스_93" data-name="패스 93" d="M128.043,311.568a38.714,38.714,0,0,1-7.4,6.869,1.07,1.07,0,0,0-.421,1.568,5.832,5.832,0,0,0,3,2.116,1.759,1.759,0,0,0,1.716-.237,19.08,19.08,0,0,0,3.416-4.213,6.652,6.652,0,0,0,1.028-5.145c-.3-1.846-.6-1.811-1.342-.959" transform="translate(-91.117 -287.135)" fill="#d71e26"/>
      <path id="패스_94" data-name="패스 94" d="M142.213,379.475c.362,0,.438-.219.209-.5a16.388,16.388,0,0,1-4.06-10.853c0-7.407,5.243-14.07,12.686-14.07,5.4,0,12.014,5.834,10.091,14.8-.141.649-.014.779.5.538,3.131-1.473,5.1-4.743,5.1-9.029,0-5.32-3.448-12.67-7.55-14.084-.665-.245-.588-.587-.029-.587,6.213,0,10.555,6.137,10.116,13.5,0,.463.2.552.5.232a10.854,10.854,0,0,0,2.98-7.779c0-7.3-6.719-14.073-14.051-14.581-.766-.052-.781-.439-.133-.684,3.482-1.286,11.45.085,15.38,4.8.359.427.831.235.831-.225,0-9.05-6.224-18.871-17.161-18.871-10.72,0-17.491,7.17-18.269,15.4a.833.833,0,0,1-.827.773c-1.855,0-5.028-2.708-5.028-6.2,0-5.174,4.328-13.925,4.328-21.969,0-5.415-4.334-10.305-7.2-10.305-.465,0-.651.175-.424.764.484,1.228-.19,2.458-1.74,2.849-.546.139-.592.608-.138.911a7.129,7.129,0,0,1,2.483,5.2c0,3.745-1.115,6.916-7.278,12.157-5.8,4.93-8.007,9.48-8.007,14.2,0,3.889,1.061,7.023,4.116,12.239,3.968,6.765,18.093,30.862,18.093,30.862a1.142,1.142,0,0,0,.884.507Z" transform="translate(-89.443 -282.973)" fill="#d71e26"/>
      <path id="패스_95" data-name="패스 95" d="M157.814,282.483a35.088,35.088,0,0,0,5.224.115l-5.374-9.54-4.834,8.576a33.255,33.255,0,0,0,4.7.822Z" transform="translate(-103.284 -273.058)" fill="#d71e26"/>
      <path id="패스_96" data-name="패스 96" d="M191.473,368.8a2.992,2.992,0,0,1-2.273-.108,17.6,17.6,0,0,1,1.177,2.477l16.213,28.777H158.865a16.854,16.854,0,0,0,1.639,2.349,3.041,3.041,0,0,1,.706,2.145H214.28l-21.053-37.362a2.961,2.961,0,0,1-1.754,1.721" transform="translate(-105.522 -307.937)" fill="#d71e26"/>
      <path id="패스_97" data-name="패스 97" d="M179.087,319.038a18.5,18.5,0,0,1,6.005,1.512l-12.507-22.194a14.6,14.6,0,0,1-3.7,2.582Z" transform="translate(-109.239 -282.443)" fill="#d71e26"/>
      <path id="패스_98" data-name="패스 98" d="M81.753,397.32l17.473-31.009A20.367,20.367,0,0,1,97.621,360L74.063,401.815H119.64l-2.632-4.494Z" transform="translate(-74.063 -305.313)" fill="#d71e26"/>
    </g>
    <rect id="사각형_21" data-name="사각형 21" width="3.461" height="17.054" transform="translate(73.678 372.727)" fill="#d71e26"/>
    <path id="패스_99" data-name="패스 99" d="M241.1,448.558h-3.581V438.81h-1.61v-2.359h1.61V434.4a3.158,3.158,0,0,1,2.9-2.9c.927-.016,2.376,0,2.376,0v2.363h-.644a1.214,1.214,0,0,0-1.054,1.072v1.512H242.8v2.359H241.1Z" transform="translate(-60.184 -58.777)" fill="#d71e26"/>
    <rect id="사각형_22" data-name="사각형 22" width="3.697" height="12.104" transform="translate(171.176 377.675)" fill="#d71e26"/>
    <rect id="사각형_23" data-name="사각형 23" width="3.697" height="3.011" transform="translate(171.176 372.727)" fill="#d71e26"/>
    <path id="패스_100" data-name="패스 100" d="M223.942,449.417a11.857,11.857,0,0,1-2.765.32,2.719,2.719,0,0,1-2.951-2.41V437.31c.809,0,1.04-1.533,1.466-3.5h1.988v3.5h2.262v2.359H221.68v6.4a.875.875,0,0,0,.81.87h1.452Z" transform="translate(-53.624 -59.635)" fill="#d71e26"/>
    <path id="패스_101" data-name="패스 101" d="M206.864,451.48V439.373h3.377v1.657a2.593,2.593,0,0,1,2.375-1.657h.552v3.158l-1.1-.013a1.619,1.619,0,0,0-1.822,1.538v7.424Z" transform="translate(-49.408 -61.699)" fill="#d71e26"/>
    <path id="패스_102" data-name="패스 102" d="M193.47,445.262c0-2.121.21-3.843,1.4-3.843,1.219,0,1.4,1.722,1.4,3.843s-.355,3.859-1.4,3.845c-1.319-.02-1.4-1.722-1.4-3.845m6.311.013c.062-3.592-1.335-6.38-4.915-6.421-3.168-.035-4.951,2.848-4.969,6.421-.019,3.646,1.705,6.334,4.969,6.313,3.035-.02,4.848-2.618,4.915-6.313" transform="translate(-43.114 -61.506)" fill="#d71e26"/>
    <path id="패스_103" data-name="패스 103" d="M176.509,442.149a1.012,1.012,0,0,1,1.16-1c1.337.008,1.519,1.641,1.519,4.063,0,2.359-.433,4.248-1.519,4.287-.488.013-1.164-.2-1.158-.8l0-6.556m0,12.553v-4.16a3.184,3.184,0,0,0,2.77,1.067c1.449-.065,3.507-2.071,3.586-6.318.1-5.531-2.367-6.437-3.586-6.437a3.154,3.154,0,0,0-2.77,1.336v-1.01h-3.566v15.531Z" transform="translate(-36.826 -61.506)" fill="#d71e26"/>
    <path id="패스_104" data-name="패스 104" d="M141.333,448.711c-.036.586-.521.855-1.156.794-1.167-.112-1.52-1.612-1.52-3.965,0-2.427.346-4.245,1.552-4.261a1.011,1.011,0,0,1,1.128.952l0,6.48m3.732,5.98.008-15.511h-1.99l-.793,1.589a3.87,3.87,0,0,0-3.107-1.915c-1.2,0-4.243,1.3-4.243,6.75,0,4.833,2.164,5.95,3.621,6.008a3.7,3.7,0,0,0,2.772-1.061v4.139Z" transform="translate(-22.727 -61.506)" fill="#d71e26"/>
    <path id="패스_105" data-name="패스 105" d="M121.24,445.262c.02-2.121.293-3.843,1.483-3.843,1.222,0,1.4,1.722,1.4,3.843s-.359,3.833-1.4,3.845c-1.415,0-1.5-1.814-1.483-3.845m6.5.013c.064-3.592-1.436-6.38-5.018-6.421-3.172-.035-5.049,2.848-5.066,6.421-.018,3.646,1.795,6.334,5.066,6.313,3.041-.02,4.954-2.618,5.018-6.313" transform="translate(-16.315 -61.506)" fill="#d71e26"/>
    <path id="패스_106" data-name="패스 106" d="M111.128,443.231c-.036-2.36-1.333-4.345-4.2-4.377-3.168-.036-4.968,2.847-4.986,6.42-.017,3.648,1.751,6.334,5.018,6.315,2.5-.014,4.056-2.044,4.268-4.555l-2.58-.3c-.078,1.529-.705,2.354-1.5,2.344-1.323-.016-1.581-1.691-1.581-3.813s.265-4.066,1.449-4.037,1.2,1.125,1.324,1.994Z" transform="translate(-10.486 -61.506)" fill="#d71e26"/>
    <path id="패스_107" data-name="패스 107" d="M84.477,443.734c.023-1.307.3-2.624,1.453-2.624,1.236.007,1.488,1.194,1.422,2.624H84.477m6.221,2.1c.282-4.95-1.98-6.948-4.815-6.98-3.141-.036-4.916,2.848-4.939,6.421-.014,3.646,1.883,6.262,4.972,6.313,2.26.038,3.684-.926,4.811-3.319l-2.3-.884a2.263,2.263,0,0,1-2.154,1.722c-1.3-.046-1.881-1.061-1.832-3.272Z" transform="translate(-2.695 -61.506)" fill="#d71e26"/>
    <path id="패스_108" data-name="패스 108" d="M156.97,448.312l2.63-.7a2.085,2.085,0,0,0,2.2,1.586c1.155-.007,2.209-1.594.065-2.371a8.956,8.956,0,0,1-3.279-1.6c-1.8-1.477-1.519-6.372,3.4-6.372a3.962,3.962,0,0,1,3.945,2.911l-2.372.716c-.524-1.365-1.4-1.422-1.864-1.4a1.073,1.073,0,0,0-.534,2.032c1.46.917,5.115,1.546,5.094,4.488-.013,2.506-2.44,4-4.9,4a4.3,4.3,0,0,1-4.387-3.295" transform="translate(-30.899 -61.506)" fill="#d71e26"/>
  </g>
</svg>
