<svg id="그룹_56" data-name="그룹 56" xmlns="http://www.w3.org/2000/svg" width="287.824" height="42.794" viewBox="0 0 287.824 42.794">
  <g id="그룹_55" data-name="그룹 55" transform="translate(0 0)">
    <rect id="사각형_24" data-name="사각형 24" width="7.646" height="32.908" transform="translate(43.422 9.818)"/>
    <rect id="사각형_25" data-name="사각형 25" width="7.646" height="6.174" transform="translate(43.422)"/>
    <path id="패스_109" data-name="패스 109" d="M130.348,455.486H106.029l3.1,5.657h17.148c2.3,0,3.526,1.04,3.526,3v2.067c0,1.959-1.223,3-3.526,3H113.129c-4.639,0-7.1,2.094-7.1,6.04v7.1c0,3.946,2.462,6.041,7.1,6.041H122.7c3.909,0,7.1-.216,7.1-2.993v2.993h7.647V461.526C137.449,457.58,134.987,455.486,130.348,455.486Zm-.546,24.251c0,1.96-1.222,3-3.526,3H115.668c-2.3,0-3.526-1.04-3.526-3v-1.872c0-1.959,1.223-3,3.526-3h10.609c2.3,0,3.526,1.04,3.526,3Z" transform="translate(-106.029 -445.668)"/>
    <path id="패스_110" data-name="패스 110" d="M252.743,458.461v-.008c0-1.959,1.223-3,3.526-3h15.9l-3.109,5.671H256.269c-2.3,0-3.526,1.04-3.526,3v24.252H245.1V455.469h7.646v2.985" transform="translate(-181.493 -445.651)"/>
  </g>
  <g id="그룹_56-2" data-name="그룹 56" transform="translate(105.964 0)">
    <path id="패스_111" data-name="패스 111" d="M346.007,438.68l-8.29-4.661V468.9c0,5.123,3.2,7.843,9.219,7.843h25.919l-4.026-7.345H350.584c-2.991,0-4.578-1.35-4.578-3.894Z" transform="translate(-337.717 -434.019)" fill="#ed533e"/>
    <path id="패스_112" data-name="패스 112" d="M457.968,434.019H443.677a13.532,13.532,0,0,0-13.492,13.492v15.742a13.532,13.532,0,0,0,13.492,13.492h14.291a13.532,13.532,0,0,0,13.492-13.492V447.511A13.532,13.532,0,0,0,457.968,434.019Zm5.2,26.216a8.173,8.173,0,0,1-8.149,8.15h-8.4a8.173,8.173,0,0,1-8.149-8.15v-9.707a8.173,8.173,0,0,1,8.149-8.149h8.4a8.173,8.173,0,0,1,8.149,8.149Z" transform="translate(-387.894 -434.019)" fill="#ed533e"/>
    <path id="패스_113" data-name="패스 113" d="M568.486,434.019H555.142a13.8,13.8,0,0,0-13.966,13.547v15.805a13.533,13.533,0,0,0,7.483,11.98l3.512-6.3L553.313,467a8.112,8.112,0,0,1-3.556-6.656V450.6a8.336,8.336,0,0,1,8.435-8.183h7.534a8.337,8.337,0,0,1,8.436,8.183v9.747A8.111,8.111,0,0,1,570.606,467c.374.673,4.363,8.354,4.363,8.354a13.533,13.533,0,0,0,7.483-11.98V447.566A13.8,13.8,0,0,0,568.486,434.019Z" transform="translate(-448.123 -434.019)" fill="#ed533e"/>
    <path id="패스_114" data-name="패스 114" d="M678.5,455.45a7.14,7.14,0,0,0-6.226-3.513l16.465-17.918h-9.984l-18.3,19.916V434.087h-8.29v42.726h8.29V464.8l5.737-6.255h1.191c2.865,0,4.665,2.023,5.876,4.232l7.693,14.035h9.258Z" transform="translate(-508.352 -434.019)" fill="#ed533e"/>
  </g>
</svg>
