<?xml version="1.0" encoding="utf-8"?>
<!-- Generator: Adobe Illustrator 21.0.2, SVG Export Plug-In . SVG Version: 6.00 Build 0)  -->
<svg version="1.1" id="Layer_1" xmlns="http://www.w3.org/2000/svg" xmlns:xlink="http://www.w3.org/1999/xlink" x="0px" y="0px"
	 viewBox="0 0 47.2 52" style="enable-background:new 0 0 47.2 52;" xml:space="preserve">
<style type="text/css">
	.st0{fill:#D71E26;}
</style>
<g id="그룹_54" transform="translate(-73.678 -273.058)">
	<g id="그룹_53" transform="translate(73.783 273.058)">
		<path id="패스_92" class="st0" d="M18.2,3.6c-0.4-0.3-0.6-0.2-0.7,0.3c-0.3,1.5,1.4,3.9,4.4,3.9c1.9,0.1,3.7-0.7,5.1-2
			c0.4-0.5,0.3-0.6-0.2-0.6C23.8,5.6,20.8,5,18.2,3.6"/>
		<path id="패스_93" class="st0" d="M16,10.6c-0.9,1.1-2,2.1-3.2,3c-0.2,0.1-0.3,0.4-0.2,0.6c0,0,0,0,0,0.1
			c0.3,0.4,0.8,0.8,1.3,0.9c0.2,0.1,0.5,0.1,0.7-0.1c0.6-0.5,1.1-1.1,1.5-1.8c0.4-0.6,0.6-1.5,0.4-2.2C16.4,10.2,16.3,10.2,16,10.6"
			/>
		<path id="패스_94" class="st0" d="M22.8,41.8c0.2,0,0.2-0.1,0.1-0.2c-1.1-1.3-1.8-3-1.8-4.7c0-3.2,2.3-6.1,5.5-6.1
			c2.3,0,5.2,2.5,4.4,6.4c-0.1,0.3,0,0.3,0.2,0.2c1.4-0.7,2.3-2.3,2.2-3.9c0-2.3-1.5-5.5-3.3-6.1c-0.3-0.1-0.3-0.3,0-0.3
			c2.7,0,4.6,2.7,4.4,5.8c0,0.2,0.1,0.2,0.2,0.1c0.9-0.9,1.3-2.1,1.3-3.4c-0.2-3.3-2.8-6-6.1-6.3c-0.3,0-0.3-0.2-0.1-0.3
			c2.4-0.5,5,0.3,6.7,2.1c0.2,0.2,0.4,0.1,0.4-0.1c0-3.9-2.7-8.2-7.4-8.2c-4.6,0-7.6,3.1-7.9,6.7c0,0.2-0.2,0.3-0.4,0.3
			c-1.3-0.3-2.2-1.4-2.2-2.7c0-2.2,1.9-6,1.9-9.5c0-2.3-1.9-4.5-3.1-4.5c-0.2,0-0.3,0.1-0.2,0.3c0.2,0.5-0.1,1-0.5,1.2
			c-0.1,0-0.1,0-0.2,0.1c-0.2,0.1-0.3,0.3-0.1,0.4c0.7,0.6,1,1.4,1.1,2.3c0,1.6-0.5,3-3.2,5.3c-2.5,2.1-3.5,4.1-3.5,6.1
			c0,1.7,0.5,3,1.8,5.3c1.7,2.9,7.8,13.4,7.8,13.4c0.1,0.1,0.2,0.2,0.4,0.2L22.8,41.8z"/>
		<path id="패스_95" class="st0" d="M23.6,4.1c0.8,0.1,1.5,0.1,2.3,0L23.5,0l-2.1,3.7c0.7,0.2,1.3,0.3,2,0.4L23.6,4.1z"/>
		<path id="패스_96" class="st0" d="M37.2,26.3c-0.3,0.1-0.7,0.1-1,0c0.2,0.3,0.4,0.7,0.5,1.1l7,12.5H23.1c0.2,0.4,0.4,0.7,0.7,1
			c0.2,0.3,0.3,0.6,0.3,0.9h23L38,25.6C37.8,25.9,37.5,26.2,37.2,26.3"/>
		<path id="패스_97" class="st0" d="M30.2,15.8c0.9,0.1,1.8,0.3,2.6,0.7l-5.4-9.6c-0.5,0.5-1,0.8-1.6,1.1L30.2,15.8z"/>
		<path id="패스_98" class="st0" d="M3.3,39.8l7.6-13.4c-0.4-0.9-0.6-1.8-0.7-2.7L0,41.8h19.7l-1.1-1.9L3.3,39.8z"/>
	</g>
	<rect id="사각형_21" x="73.7" y="316.2" class="st0" width="1.5" height="7.4"/>
	<path id="패스_99" class="st0" d="M120.1,323.6h-1.6v-4.2h-0.7v-1h0.7v-0.9c0.1-0.7,0.6-1.2,1.3-1.3c0.4,0,1,0,1,0v1h-0.3
		c-0.2,0-0.4,0.2-0.5,0.5v0.7h0.7v1h-0.7L120.1,323.6z"/>
	<rect id="사각형_22" x="115.9" y="318.3" class="st0" width="1.6" height="5.2"/>
	<rect id="사각형_23" x="115.9" y="316.2" class="st0" width="1.6" height="1.3"/>
	<path id="패스_100" class="st0" d="M115.5,323.6c-0.4,0.1-0.8,0.1-1.2,0.1c-0.6,0.1-1.2-0.4-1.3-1v-4.3c0.4,0,0.4-0.7,0.6-1.5
		h0.9v1.5h1v1h-1v2.8c0,0.2,0.2,0.4,0.4,0.4h0.6L115.5,323.6z"/>
	<path id="패스_101" class="st0" d="M109.9,323.6v-5.2h1.5v0.7c0.2-0.4,0.6-0.7,1-0.7h0.2v1.4l-0.5,0c-0.4,0-0.7,0.2-0.8,0.6
		c0,0,0,0,0,0.1v3.2L109.9,323.6z"/>
	<path id="패스_102" class="st0" d="M106.9,321c0-0.9,0.1-1.7,0.6-1.7s0.6,0.7,0.6,1.7s-0.2,1.7-0.6,1.7
		C106.9,322.6,106.9,321.9,106.9,321 M109.6,321c0-1.6-0.6-2.8-2.1-2.8c-1.4,0-2.1,1.2-2.2,2.8c0,1.6,0.7,2.7,2.2,2.7
		C108.8,323.7,109.6,322.6,109.6,321"/>
	<path id="패스_103" class="st0" d="M102.2,319.6c0-0.2,0.2-0.4,0.4-0.4c0,0,0,0,0.1,0c0.6,0,0.7,0.7,0.7,1.8c0,1-0.2,1.8-0.7,1.9
		c-0.2,0-0.5-0.1-0.5-0.3V319.6 M102.2,325.1v-1.8c0.3,0.3,0.7,0.5,1.2,0.5c0.6,0,1.5-0.9,1.6-2.7c0-2.4-1-2.8-1.6-2.8
		c-0.5,0-0.9,0.2-1.2,0.6v-0.4h-1.5v6.7L102.2,325.1z"/>
	<path id="패스_104" class="st0" d="M93.1,322.5c0,0.3-0.2,0.4-0.5,0.3c-0.5,0-0.7-0.7-0.7-1.7c0-1,0.1-1.8,0.7-1.8
		c0.2,0,0.5,0.1,0.5,0.4c0,0,0,0,0,0L93.1,322.5 M94.7,325v-6.7h-0.9l-0.3,0.7c-0.3-0.5-0.8-0.8-1.3-0.8c-0.5,0-1.8,0.6-1.8,2.9
		c0,2.1,0.9,2.6,1.6,2.6c0.4,0,0.9-0.1,1.2-0.5v1.8L94.7,325z"/>
	<path id="패스_105" class="st0" d="M87.2,321c0-0.9,0.1-1.7,0.6-1.7s0.6,0.7,0.6,1.7s-0.2,1.7-0.6,1.7
		C87.2,322.6,87.2,321.8,87.2,321 M90,321c0-1.6-0.6-2.8-2.2-2.8c-1.4,0-2.2,1.2-2.2,2.8c0,1.6,0.8,2.7,2.2,2.7
		C89.2,323.7,90,322.6,90,321"/>
	<path id="패스_106" class="st0" d="M85.3,320.1c0.1-1-0.6-1.8-1.6-1.9c-0.1,0-0.1,0-0.2,0c-1.4,0-2.2,1.2-2.2,2.8
		c0,1.6,0.8,2.7,2.2,2.7c1,0,1.9-0.9,1.8-2l-1.1-0.1c0,0.7-0.3,1-0.7,1c-0.6,0-0.7-0.7-0.7-1.6s0.1-1.8,0.6-1.7s0.5,0.5,0.6,0.9
		L85.3,320.1z"/>
	<path id="패스_107" class="st0" d="M77.2,320.3c0-0.6,0.1-1.1,0.6-1.1c0.5,0,0.6,0.5,0.6,1.1H77.2 M79.9,321.2
		c0.1-2.1-0.9-3-2.1-3c-1.4,0-2.1,1.2-2.1,2.8c0,1.6,0.8,2.7,2.2,2.7c0.9,0,1.8-0.5,2.1-1.4l-1-0.4c-0.1,0.4-0.5,0.7-0.9,0.7
		c-0.6,0-0.8-0.5-0.8-1.4L79.9,321.2z"/>
	<path id="패스_108" class="st0" d="M96.4,322.3l1.1-0.3c0.1,0.4,0.5,0.7,1,0.7c0.5,0,1-0.7,0-1c-0.5-0.1-1-0.4-1.4-0.7
		c-0.6-0.7-0.6-1.7,0.1-2.3c0.4-0.3,0.9-0.5,1.4-0.4c0.8,0,1.5,0.5,1.7,1.3l-1,0.3c-0.2-0.6-0.6-0.6-0.8-0.6c-0.3,0-0.5,0.2-0.5,0.4
		c0,0.2,0.1,0.4,0.3,0.4c0.6,0.4,2.2,0.7,2.2,1.9c-0.1,1.1-1.1,1.8-2.1,1.7C97.4,323.8,96.6,323.2,96.4,322.3"/>
</g>
</svg>
