<svg id="그룹_62" data-name="그룹 62" xmlns="http://www.w3.org/2000/svg" width="127.791" height="19" viewBox="0 0 127.791 19">
  <g id="그룹_55" data-name="그룹 55" transform="translate(0 0)">
    <rect id="사각형_24" data-name="사각형 24" width="3.395" height="14.611" transform="translate(19.279 4.359)"/>
    <rect id="사각형_25" data-name="사각형 25" width="3.395" height="2.741" transform="translate(19.279)"/>
    <path id="패스_109" data-name="패스 109" d="M116.827,455.486h-10.8L107.406,458h7.613c1.023,0,1.565.462,1.565,1.332v.918c0,.87-.543,1.332-1.565,1.332h-5.837c-2.059,0-3.153.93-3.153,2.682v3.154c0,1.752,1.093,2.682,3.153,2.682h4.25c1.736,0,3.153-.1,3.153-1.329V470.1h3.395V458.168C119.979,456.416,118.886,455.486,116.827,455.486Zm-.242,10.767c0,.87-.543,1.332-1.565,1.332h-4.71c-1.023,0-1.566-.462-1.566-1.332v-.831c0-.87.543-1.332,1.566-1.332h4.71c1.023,0,1.565.462,1.565,1.332Z" transform="translate(-106.029 -451.127)"/>
    <path id="패스_110" data-name="패스 110" d="M248.492,456.789v0c0-.87.543-1.332,1.565-1.332h7.059l-1.38,2.518h-5.679c-1.022,0-1.565.462-1.565,1.332v10.768H245.1V455.461h3.395v1.325" transform="translate(-216.858 -451.101)"/>
  </g>
  <g id="그룹_56" data-name="그룹 56" transform="translate(47.047 0)">
    <path id="패스_111" data-name="패스 111" d="M341.4,436.089l-3.68-2.07v15.488c0,2.275,1.419,3.482,4.093,3.482h11.508l-1.787-3.261h-8.1c-1.328,0-2.032-.6-2.032-1.729Z" transform="translate(-337.717 -434.019)" fill="#ed533e"/>
    <path id="패스_112" data-name="패스 112" d="M442.521,434.019h-6.345a6.008,6.008,0,0,0-5.99,5.99V447a6.008,6.008,0,0,0,5.99,5.99h6.345a6.008,6.008,0,0,0,5.99-5.99v-6.989A6.008,6.008,0,0,0,442.521,434.019Zm2.31,11.64a3.629,3.629,0,0,1-3.618,3.618h-3.729a3.629,3.629,0,0,1-3.618-3.618v-4.31a3.629,3.629,0,0,1,3.618-3.618h3.729a3.629,3.629,0,0,1,3.618,3.618Z" transform="translate(-411.408 -434.019)" fill="#ed533e"/>
    <path id="패스_113" data-name="패스 113" d="M553.3,434.019h-5.924a6.128,6.128,0,0,0-6.2,6.015v7.017a6.009,6.009,0,0,0,3.322,5.319l1.559-2.8.507-.912a3.6,3.6,0,0,1-1.579-2.955v-4.327a3.7,3.7,0,0,1,3.745-3.633h3.345a3.7,3.7,0,0,1,3.745,3.633v4.327a3.6,3.6,0,0,1-1.579,2.955c.166.3,1.937,3.709,1.937,3.709a6.008,6.008,0,0,0,3.322-5.319v-7.017A6.128,6.128,0,0,0,553.3,434.019Z" transform="translate(-499.861 -434.019)" fill="#ed533e"/>
    <path id="패스_114" data-name="패스 114" d="M663.86,443.534a3.17,3.17,0,0,0-2.764-1.56l7.31-7.955h-4.433l-8.125,8.843v-8.812h-3.68v18.97h3.68v-5.334l2.547-2.777h.529a3.042,3.042,0,0,1,2.609,1.879l3.416,6.232h4.11Z" transform="translate(-588.314 -434.019)" fill="#ed533e"/>
  </g>
</svg>
